<?xml version="1.0" encoding="UTF-8"?>
<svg version="1.1" xmlns="http://www.w3.org/2000/svg" width="460" height="311">
<path d="M0 0 C3.1678568 1.64310251 3.1678568 1.64310251 6.640625 1.71875 C8.7878141 1.01927378 8.7878141 1.01927378 10.94921875 0.04296875 C14.24063268 -1.3493633 17.61451126 -2.2783225 21.0625 -3.1875 C21.71734375 -3.36047607 22.3721875 -3.53345215 23.046875 -3.71166992 C27.90279976 -4.96045842 32.55621694 -5.85942326 37.5625 -6.0625 C38.89087891 -6.12244141 38.89087891 -6.12244141 40.24609375 -6.18359375 C64.73895654 -6.73655347 87.11941633 0.86325277 105.5625 16.9375 C106.17222656 17.41574219 106.78195312 17.89398438 107.41015625 18.38671875 C126.46225367 33.53291921 137.73875236 59.16667892 140.5625 82.9375 C140.7981274 85.91454197 140.96911962 88.89282953 141.125 91.875 C141.16818359 92.65423828 141.21136719 93.43347656 141.25585938 94.23632812 C141.36078077 96.13657117 141.4620245 98.03701669 141.5625 99.9375 C142.16835938 100.205625 142.77421875 100.47375 143.3984375 100.75 C164.07605264 110.42076154 178.51112802 128.94180009 186.5625 149.9375 C193.58966213 172.50709132 191.73044913 195.71639205 181.5625 216.9375 C169.34809489 239.40380388 150.01058113 254.82044597 126.0078125 263.04296875 C112.93158129 266.43804465 99.9553588 266.36740046 86.51953125 266.484375 C85.37231787 266.49502235 84.22510448 266.50566971 83.04312706 266.51663971 C76.9832872 266.56979887 70.92352583 266.60866261 64.86352539 266.63769531 C59.86506705 266.66446563 54.86822406 266.72037398 49.87036133 266.80175781 C43.80681474 266.90044384 37.74474087 266.94993427 31.68042564 266.96414948 C29.37947111 266.9775479 27.07854789 267.00792426 24.77805519 267.05593109 C5.86890072 267.42838791 5.86890072 267.42838791 1.20922852 263.7492981 C-1.0587094 261.24957997 -2.73982302 258.84166783 -4.4375 255.9375 C-5.94210278 254.23777163 -5.94210278 254.23777163 -7.4765625 252.8359375 C-15.29705513 245.2044598 -15.29705513 245.2044598 -18.8125 241.0625 C-21.9987939 237.32206803 -25.44629685 233.88945962 -28.9375 230.4375 C-32.9921517 226.42837421 -36.87728152 222.37885496 -40.56640625 218.02734375 C-43.57900691 214.66253925 -46.82322042 211.53204812 -50.03540039 208.35913086 C-53.36809062 205.05150237 -56.48958116 201.64093393 -59.53125 198.0625 C-62.55475454 194.69203593 -65.80364849 191.55123948 -69.02416992 188.37036133 C-72.45910237 184.96139781 -75.69811869 181.44826942 -78.8359375 177.76171875 C-81.55025711 174.67004251 -84.48959608 171.80476218 -87.4375 168.9375 C-85.9007131 165.29387416 -83.71657086 162.9688347 -80.93115234 160.18823242 C-80.2477327 159.50196526 -80.2477327 159.50196526 -79.55050659 158.80183411 C-78.04632196 157.29395253 -76.53506721 155.79338378 -75.0234375 154.29296875 C-73.96892395 153.23964872 -72.91478136 152.1859572 -71.86099243 151.13191223 C-69.64982846 148.92231177 -67.43534988 146.71610703 -65.21826172 144.51245117 C-62.39578968 141.70687471 -59.57984976 138.89485598 -56.7661953 136.08043957 C-54.58728158 133.90179988 -52.4057546 131.72579255 -50.22337723 129.55062294 C-49.18552913 128.5159284 -48.14826043 127.48065234 -47.11161423 126.44475365 C-42.53974237 121.8797792 -37.98295 117.33745512 -33.06005859 113.14672852 C-30.68752654 111.1232403 -28.68168291 109.12439034 -26.77832031 106.65527344 C-22.66636633 101.56846833 -19.33874618 97.88447736 -12.63476562 96.97460938 C-7.13619995 96.61447927 -1.6823789 96.88576084 3.8125 97.1875 C5.73290469 97.24780648 7.6534929 97.30253938 9.57421875 97.3515625 C14.24157722 97.4826883 18.89997695 97.689019 23.5625 97.9375 C21.74186505 101.93103125 19.13078689 104.39150254 15.875 107.25 C14.78142636 108.229213 13.6889726 109.20967816 12.59765625 110.19140625 C12.07187988 110.66336426 11.54610352 111.13532227 11.00439453 111.62158203 C9.21488489 113.2547444 7.50568503 114.95502994 5.8125 116.6875 C3.58602619 118.96402323 1.28131111 121.07402134 -1.140625 123.140625 C-5.44268064 126.88248632 -9.4466855 130.8687399 -13.4375 134.9375 C-18.01747885 139.60693156 -22.66847153 144.07845888 -27.625 148.34765625 C-30.00865643 150.43849282 -32.22614325 152.66637685 -34.4375 154.9375 C-38.60324552 159.1548337 -42.92293087 163.10018738 -47.4375 166.9375 C-43.22536513 171.91372641 -38.90123892 176.74873408 -34.4375 181.5 C-33.46780273 182.53447266 -33.46780273 182.53447266 -32.47851562 183.58984375 C-27.51466262 188.85760612 -22.44442511 194.00808451 -17.26953125 199.06860352 C-14.42974704 201.86326404 -11.73230411 204.71430929 -9.13671875 207.73828125 C-4.92162457 212.61676514 -0.34206278 217.10429795 4.25 221.625 C5.92295904 223.27231982 7.59361173 224.92198586 9.26171875 226.57421875 C9.99221436 227.29311279 10.72270996 228.01200684 11.4753418 228.75268555 C13.5625 230.9375 13.5625 230.9375 15.70629883 233.64770508 C17.35777384 236.00729896 17.35777384 236.00729896 19.5625 236.9375 C22.05248031 237.03777274 24.51362134 237.0770201 27.00390625 237.0703125 C28.16572418 237.07249535 28.16572418 237.07249535 29.35101318 237.07472229 C31.94238859 237.07700203 34.53363717 237.070597 37.125 237.0625 C38.0157724 237.06061676 38.9065448 237.05873352 39.8243103 237.05679321 C46.73724145 237.0398552 53.64979173 236.99444356 60.5625 236.9375 C62.17112915 236.9245993 62.17112915 236.9245993 63.81225586 236.91143799 C70.42473192 236.85504134 77.03649607 236.77640077 83.64840698 236.67303467 C85.7827221 236.64126087 87.91711046 236.61404717 90.05154419 236.59161377 C111.25244258 236.35644365 129.38846931 233.40094925 144.93359375 217.83203125 C155.90994679 205.74662619 161.1374029 190.86802646 160.74609375 174.6171875 C159.70308358 159.39367741 152.87790373 145.61527879 141.8125 135.125 C129.89213959 125.36344502 117.41422035 123.64558498 102.5625 123.5234375 C101.11660693 123.5046994 99.67072449 123.48512407 98.22485352 123.4647522 C94.44385076 123.41370363 90.66281265 123.37393317 86.88165283 123.33660889 C83.01346286 123.2963969 79.14541644 123.24538355 75.27734375 123.1953125 C67.70582811 123.09887679 60.13424226 123.01436999 52.5625 122.9375 C52.5625 122.2775 52.5625 121.6175 52.5625 120.9375 C53.85546875 119.66796875 53.85546875 119.66796875 55.75 118.125 C59.75032062 114.74284615 63.40059336 111.11191973 67.0625 107.375 C80.83269014 93.45093094 80.83269014 93.45093094 90.53857422 92.71044922 C92.06248779 92.72615967 92.06248779 92.72615967 93.6171875 92.7421875 C94.72578125 92.74863281 95.834375 92.75507812 96.9765625 92.76171875 C98.68972656 92.78685547 98.68972656 92.78685547 100.4375 92.8125 C101.6028125 92.82152344 102.768125 92.83054687 103.96875 92.83984375 C106.83354577 92.86332568 109.69791535 92.89616859 112.5625 92.9375 C108.40479094 69.1791625 100.46171987 49.89594347 80.19921875 35.2265625 C65.57568786 25.79665878 47.61139949 22.41671845 30.5078125 25.5859375 C22.71339001 27.48187811 16.23362019 30.36954436 9.3671875 34.44921875 C6.60361354 35.91568348 4.68610723 36.80458054 1.5625 36.9375 C-0.47265625 35.71484375 -0.47265625 35.71484375 -2.5 33.875 C-17.30493699 21.59057295 -38.00047379 16.71742174 -56.99365234 18.26538086 C-75.79367874 20.33489121 -95.37708641 28.57825535 -107.68261719 43.44140625 C-118.9731024 57.68711914 -124.6530604 73.10054533 -127.4375 90.9375 C-128.46488281 90.99808594 -129.49226563 91.05867188 -130.55078125 91.12109375 C-132.68771873 91.2472827 -134.82351502 91.380135 -136.95898438 91.52929688 C-140.21085109 91.75563826 -143.40591157 91.93776737 -146.66796875 91.91015625 C-150.58071708 91.94878705 -153.32628772 92.12219714 -156.53515625 94.4765625 C-161.41455888 99.65668378 -165.21717179 105.88743161 -169.02563477 111.88330078 C-171.60215499 115.90758987 -173.3268119 118.43943835 -178.15234375 119.578125 C-179.21582031 119.77921875 -180.27929688 119.9803125 -181.375 120.1875 C-195.97839168 123.46151234 -208.79046279 131.65497315 -216.9453125 144.35546875 C-225.79267706 159.66465193 -228.72875986 175.77385158 -224.26757812 192.9050293 C-219.69432742 209.1274508 -210.28844272 220.97352268 -195.71875 229.31640625 C-185.20718941 234.50961773 -175.36924121 236.09522813 -163.78564453 236.01586914 C-161.58765714 236.00975585 -159.38966923 236.00382881 -157.19168091 235.99806213 C-156.03153599 235.99338991 -154.87139107 235.98871769 -153.67609024 235.98390388 C-147.51711905 235.96469198 -141.35819898 235.97993712 -135.19921875 235.99023438 C-127.36876731 236.00248848 -119.53886309 236.00409376 -111.70849609 235.96166992 C-105.37293916 235.92825398 -99.03846141 235.9337135 -92.70290756 235.96523857 C-90.29242519 235.97016072 -87.88186968 235.96089095 -85.4715004 235.93702888 C-82.09583049 235.90556681 -78.72375609 235.92382687 -75.34814453 235.95336914 C-74.35775177 235.93238663 -73.36735901 235.91140411 -72.34695435 235.88978577 C-66.77552584 235.99766356 -63.93433688 236.84290979 -59.91207886 240.81517029 C-58.72546563 242.16481394 -57.56390202 243.53721166 -56.4375 244.9375 C-55.61121094 245.90816406 -54.78492188 246.87882812 -53.93359375 247.87890625 C-53.25425781 248.74386719 -52.57492188 249.60882813 -51.875 250.5 C-48.71425952 254.44955613 -45.46072392 258.06414452 -41.75 261.5 C-40.4375 262.9375 -40.4375 262.9375 -39.4375 265.9375 C-56.76296088 266.00785404 -74.08837661 266.0606166 -91.41394806 266.09293652 C-99.46009624 266.10834793 -107.50615521 266.12932665 -115.55224609 266.16381836 C-122.57237644 266.19389745 -129.59244213 266.21311651 -136.61263514 266.21976548 C-140.3232948 266.22364671 -144.03376961 266.23264559 -147.74436951 266.25469017 C-177.94038734 266.42695274 -205.01914544 263.12865644 -227.46484375 241.01171875 C-244.93401203 223.19618384 -254.11276126 201.74551291 -254.6875 176.875 C-254.45475827 153.55427843 -245.83775783 132.21479482 -229.81640625 115.24609375 C-210.88572891 96.87494382 -188.18264577 88.41853833 -162.02392578 88.78369141 C-160.16152309 88.82440191 -158.29943866 88.87931442 -156.4375 88.9375 C-156.36273438 88.15890625 -156.28796875 87.3803125 -156.2109375 86.578125 C-153.60455128 64.39828932 -145.58967087 42.64373968 -130.4375 25.9375 C-129.75300781 25.12410156 -129.06851563 24.31070313 -128.36328125 23.47265625 C-97.32481072 -12.69245573 -41.92674364 -24.17105932 0 0 Z " fill="#106B68" transform="translate(261.4375,31.0625)"/>
<path d="M0 0 C0.56762695 1.89916992 0.56762695 1.89916992 1 4 C-0.08203125 5.61328125 -0.08203125 5.61328125 -1.8125 7.3125 C-6.03156387 11.78623573 -9.24762127 16.72470752 -12.53442383 21.89575195 C-15.13563194 25.92883666 -16.86805413 28.49692212 -21.71484375 29.640625 C-22.77832031 29.84171875 -23.84179688 30.0428125 -24.9375 30.25 C-39.54089168 33.52401234 -52.35296279 41.71747315 -60.5078125 54.41796875 C-69.35517706 69.72715193 -72.29125986 85.83635158 -67.83007812 102.9675293 C-63.25682742 119.1899508 -53.85094272 131.03602268 -39.28125 139.37890625 C-28.76968941 144.57211773 -18.93174121 146.15772813 -7.34814453 146.07836914 C-5.15015714 146.07225585 -2.95216923 146.06632881 -0.75418091 146.06056213 C0.40596401 146.05588991 1.56610893 146.05121769 2.76140976 146.04640388 C8.92038095 146.02719198 15.07930102 146.04243712 21.23828125 146.05273438 C29.06873269 146.06498848 36.89863691 146.06659376 44.72900391 146.02416992 C51.06456084 145.99075398 57.39903859 145.9962135 63.73459244 146.02773857 C66.14507481 146.03266072 68.55563032 146.02339095 70.9659996 145.99952888 C74.34166951 145.96806681 77.71374391 145.98632687 81.08935547 146.01586914 C82.07974823 145.99488663 83.07014099 145.97390411 84.09054565 145.95228577 C89.66197416 146.06016356 92.50316312 146.90540979 96.52542114 150.87767029 C97.71203437 152.22731394 98.87359798 153.59971166 100 155 C100.82628906 155.97066406 101.65257812 156.94132813 102.50390625 157.94140625 C103.18324219 158.80636719 103.86257812 159.67132813 104.5625 160.5625 C107.72324048 164.51205613 110.97677608 168.12664452 114.6875 171.5625 C116 173 116 173 117 176 C99.67453912 176.07035404 82.34912339 176.1231166 65.02355194 176.15543652 C56.97740376 176.17084793 48.93134479 176.19182665 40.88525391 176.22631836 C33.86512356 176.25639745 26.84505787 176.27561651 19.82486486 176.28226548 C16.1142052 176.28614671 12.40373039 176.29514559 8.69313049 176.31719017 C-21.50288734 176.48945274 -48.58164544 173.19115644 -71.02734375 151.07421875 C-88.49651203 133.25868384 -97.67526126 111.80801291 -98.25 86.9375 C-98.01725827 63.61677843 -89.40025783 42.27729482 -73.37890625 25.30859375 C-52.66213878 5.20414453 -28.38560721 -2.53606609 0 0 Z " fill="#08906B" transform="translate(105,121)"/>
<path d="M0 0 C5.79155693 2.18674794 10.97209727 5.27257794 16.3125 8.375 C17.33923828 8.9525 18.36597656 9.53 19.42382812 10.125 C20.39384766 10.68960938 21.36386719 11.25421875 22.36328125 11.8359375 C23.25313721 12.34688965 24.14299316 12.8578418 25.05981445 13.38427734 C26.0202063 14.18406006 26.0202063 14.18406006 27 15 C27 19.00612364 26.99272119 19.50970683 24.83203125 22.4765625 C24.35757568 23.13793213 23.88312012 23.79930176 23.39428711 24.48071289 C22.61130249 25.54213501 22.61130249 25.54213501 21.8125 26.625 C21.27439697 27.37064209 20.73629395 28.11628418 20.18188477 28.88452148 C18.46321847 31.26274242 16.73210859 33.63155717 15 36 C12.80896974 39.01828217 10.62326033 42.0404003 8.4375 45.0625 C7.89327393 45.81289551 7.34904785 46.56329102 6.78833008 47.33642578 C3.28648027 52.17661873 -0.13498965 57.06387411 -3.5 62 C-8.96432745 70.01189224 -14.63636626 77.86515847 -20.33837891 85.70898438 C-21.9959464 87.99441096 -23.64574763 90.28523236 -25.29296875 92.578125 C-31.04976323 100.58754089 -36.86810506 108.54215578 -42.8059082 116.41845703 C-46.93616595 121.89900474 -50.98880444 127.43151675 -55 133 C-55.99 132.67 -56.98 132.34 -58 132 C-57.42769776 127.74720911 -56.41909388 124.21524234 -54.69140625 120.29296875 C-54.2013208 119.17092041 -53.71123535 118.04887207 -53.20629883 116.89282227 C-52.65854546 115.6576352 -52.1106059 114.42253068 -51.5625 113.1875 C-50.98339073 111.86996391 -50.40487612 110.55216631 -49.8269043 109.23413086 C-48.56571785 106.3606405 -47.30054375 103.48894507 -46.03320312 100.61816406 C-43.92778422 95.84362061 -41.84624553 91.05882653 -39.765625 86.2734375 C-32.13687952 68.7503276 -24.37830957 51.29303901 -16.375 33.9375 C-15.82653915 32.74569626 -15.82653915 32.74569626 -15.26699829 31.52981567 C-10.37666659 20.91663465 -5.28654701 10.42146712 0 0 Z " fill="#0C7C69" transform="translate(184,98)"/>
<path d="M0 0 C1.35432675 1.31200404 2.68733482 2.64631404 4 4 C4 4.33 4 4.66 4 5 C-40.55 5 -85.1 5 -131 5 C-131 4.67 -131 4.34 -131 4 C-87.77 3.67 -44.54 3.34 0 3 C0 2.01 0 1.02 0 0 Z " fill="#174F66" transform="translate(218,292)"/>
<path d="M0 0 C13.53 0 27.06 0 41 0 C39 4 39 4 37 5 C36.505 3.515 36.505 3.515 36 2 C24.12 1.67 12.24 1.34 0 1 C0 0.67 0 0.34 0 0 Z " fill="#175066" transform="translate(244,129)"/>
<path d="M0 0 C2.475 0.99 2.475 0.99 5 2 C3.515 4.475 3.515 4.475 2 7 C1.01 6.67 0.02 6.34 -1 6 C-0.67 4.02 -0.34 2.04 0 0 Z " fill="#106D68" transform="translate(127,224)"/>
<path d="M0 0 C0.66 0.33 1.32 0.66 2 1 C-0.66666667 3.66666667 -3.33333333 6.33333333 -6 9 C-6.66 8.67 -7.32 8.34 -8 8 C-5.36 5.36 -2.72 2.72 0 0 Z " fill="#145E67" transform="translate(142,45)"/>
</svg>
